<svg data-v-423bf9ae="" xmlns="http://www.w3.org/2000/svg" viewBox="0 0 652 90" class="iconLeft"><!----><!----><!----><g data-v-423bf9ae="" id="5deab952-c2d8-4d79-9b74-2700b5b88d90" fill="#000000" transform="matrix(4.452690040922712,0,0,4.452690040922712,107.55102827147255,15.801485490911752)"><path d="M5.66 1.20L5.66 1.20L5.66 1.20Q6.15 1.20 6.66 1.28L6.66 1.28L6.66 1.28Q7.18 1.36 7.59 1.44L7.59 1.44L7.59 1.44Q8.06 1.54 8.51 1.67L8.51 1.67L8.51 3.68L8.51 3.68Q8.09 3.56 7.54 3.40L7.54 3.40L7.54 3.40Q6.99 3.25 6.40 3.18L6.40 3.18L6.40 3.18Q5.81 3.12 5.24 3.19L5.24 3.19L5.24 3.19Q4.68 3.26 4.23 3.56L4.23 3.56L4.23 3.56Q3.78 3.85 3.51 4.42L3.51 4.42L3.51 4.42Q3.23 5.00 3.23 5.94L3.23 5.94L3.23 5.94Q3.23 6.89 3.49 7.46L3.49 7.46L3.49 7.46Q3.75 8.04 4.18 8.33L4.18 8.33L4.18 8.33Q4.61 8.62 5.16 8.69L5.16 8.69L5.16 8.69Q5.71 8.75 6.30 8.67L6.30 8.67L6.30 8.67Q6.89 8.60 7.46 8.44L7.46 8.44L7.46 8.44Q8.04 8.29 8.51 8.13L8.51 8.13L8.51 10.15L8.51 10.15Q8.05 10.29 7.57 10.40L7.57 10.40L7.57 10.40Q7.17 10.50 6.66 10.58L6.66 10.58L6.66 10.58Q6.15 10.65 5.66 10.65L5.66 10.65L5.66 10.65Q5.21 10.65 4.66 10.57L4.66 10.57L4.66 10.57Q4.10 10.49 3.54 10.28L3.54 10.28L3.54 10.28Q2.97 10.08 2.43 9.73L2.43 9.73L2.43 9.73Q1.89 9.38 1.47 8.86L1.47 8.86L1.47 8.86Q1.05 8.33 0.80 7.61L0.80 7.61L0.80 7.61Q0.55 6.89 0.55 5.94L0.55 5.94L0.55 5.94Q0.55 4.98 0.80 4.26L0.80 4.26L0.80 4.26Q1.05 3.54 1.47 3.02L1.47 3.02L1.47 3.02Q1.89 2.49 2.43 2.14L2.43 2.14L2.43 2.14Q2.97 1.79 3.54 1.58L3.54 1.58L3.54 1.58Q4.10 1.37 4.66 1.29L4.66 1.29L4.66 1.29Q5.21 1.20 5.66 1.20ZM12.36 10.50L9.84 10.50L9.84 3.22L12.36 3.22L12.36 10.50ZM12.35 1.04L12.35 1.04L12.35 1.04Q12.35 1.30 12.25 1.53L12.25 1.53L12.25 1.53Q12.15 1.76 11.98 1.93L11.98 1.93L11.98 1.93Q11.82 2.10 11.59 2.20L11.59 2.20L11.59 2.20Q11.37 2.30 11.12 2.30L11.12 2.30L11.12 2.30Q10.58 2.30 10.22 1.93L10.22 1.93L10.22 1.93Q9.86 1.57 9.86 1.04L9.86 1.04L9.86 1.04Q9.86 0.78 9.95 0.56L9.95 0.56L9.95 0.56Q10.05 0.34 10.22 0.17L10.22 0.17L10.22 0.17Q10.39 0.01 10.62-0.08L10.62-0.08L10.62-0.08Q10.85-0.18 11.12-0.18L11.12-0.18L11.12-0.18Q11.62-0.18 11.98 0.17L11.98 0.17L11.98 0.17Q12.35 0.53 12.35 1.04ZM18.16 8.97L18.16 8.97L18.16 8.97Q18.35 8.97 18.55 8.96L18.55 8.96L18.55 8.96Q18.75 8.95 18.90 8.92L18.90 8.92L18.90 8.92Q19.08 8.89 19.25 8.85L19.25 8.85L19.22 10.43L19.22 10.43Q18.98 10.49 18.72 10.54L18.72 10.54L18.72 10.54Q18.48 10.58 18.16 10.62L18.16 10.62L18.16 10.62Q17.85 10.65 17.49 10.65L17.49 10.65L17.49 10.65Q16.79 10.61 16.23 10.36L16.23 10.36L16.23 10.36Q15.99 10.25 15.76 10.08L15.76 10.08L15.76 10.08Q15.54 9.91 15.36 9.66L15.36 9.66L15.36 9.66Q15.19 9.41 15.08 9.08L15.08 9.08L15.08 9.08Q14.98 8.75 14.98 8.30L14.98 8.30L14.98 5.53L13.55 5.53L13.55 3.75L15.02 3.75L15.47 1.46L17.49 1.46L17.49 3.75L19.28 3.75L19.28 5.53L17.51 5.53L17.51 8.33L17.51 8.33Q17.54 8.68 17.70 8.83L17.70 8.83L17.70 8.83Q17.86 8.97 18.16 8.97ZM25.45 3.22L27.99 3.22L27.99 3.22Q27.23 5.21 26.66 6.69L26.66 6.69L26.66 6.69Q26.08 8.18 25.62 9.25L25.62 9.25L25.62 9.25Q25.16 10.32 24.80 11.03L24.80 11.03L24.80 11.03Q24.44 11.73 24.11 12.17L24.11 12.17L24.11 12.17Q23.77 12.61 23.45 12.84L23.45 12.84L23.45 12.84Q23.13 13.06 22.75 13.17L22.75 13.17L22.75 13.17Q22.51 13.24 22.17 13.27L22.17 13.27L22.17 13.27Q21.83 13.29 21.50 13.29L21.50 13.29L21.50 13.29Q21.17 13.30 20.94 13.29L20.94 13.29L20.94 13.29Q20.72 13.29 20.72 13.29L20.72 13.29L20.73 11.37L21.52 11.35L21.52 11.35Q21.91 11.35 22.13 11.20L22.13 11.20L22.13 11.20Q22.36 11.05 22.47 10.85L22.47 10.85L22.47 10.85Q22.61 10.63 22.64 10.35L22.64 10.35L19.67 3.22L22.34 3.22L23.93 7.99L25.45 3.22ZM39.94 6.94L41.10 10.50L38.47 10.50L37.51 7.60L37.51 7.60Q37.44 7.43 37.32 7.28L37.32 7.28L37.32 7.28Q37.23 7.15 37.08 7.05L37.08 7.05L37.08 7.05Q36.93 6.94 36.72 6.94L36.72 6.94L35.81 6.94L35.81 10.50L33.21 10.50L33.21 1.34L36.60 1.34L36.60 1.34Q37.31 1.34 38.04 1.39L38.04 1.39L38.04 1.39Q38.77 1.43 39.35 1.65L39.35 1.65L39.35 1.65Q39.94 1.88 40.31 2.35L40.31 2.35L40.31 2.35Q40.68 2.83 40.68 3.70L40.68 3.70L40.68 3.70Q40.68 4.27 40.54 4.66L40.54 4.66L40.54 4.66Q40.40 5.05 40.19 5.31L40.19 5.31L40.19 5.31Q39.98 5.56 39.73 5.70L39.73 5.70L39.73 5.70Q39.48 5.84 39.27 5.89L39.27 5.89L39.27 5.89Q39.06 5.95 38.92 5.96L38.92 5.96L38.92 5.96Q38.78 5.98 38.78 5.98L38.78 5.98L38.78 5.98Q39.12 5.98 39.34 6.13L39.34 6.13L39.34 6.13Q39.56 6.29 39.70 6.47L39.70 6.47L39.70 6.47Q39.83 6.65 39.89 6.80L39.89 6.80L39.89 6.80Q39.94 6.94 39.94 6.94L39.94 6.94ZM35.81 5.10L36.39 5.10L36.39 5.10Q36.69 5.10 37.00 5.09L37.00 5.09L37.00 5.09Q37.30 5.08 37.53 5.00L37.53 5.00L37.53 5.00Q37.77 4.91 37.92 4.72L37.92 4.72L37.92 4.72Q38.07 4.52 38.07 4.14L38.07 4.14L38.07 4.14Q38.07 3.77 37.94 3.57L37.94 3.57L37.94 3.57Q37.81 3.37 37.58 3.29L37.58 3.29L37.58 3.29Q37.35 3.21 37.04 3.20L37.04 3.20L37.04 3.20Q36.74 3.19 36.39 3.19L36.39 3.19L35.81 3.19L35.81 5.10ZM44.91 10.50L42.39 10.50L42.39 3.22L44.91 3.22L44.91 10.50ZM44.90 1.04L44.90 1.04L44.90 1.04Q44.90 1.30 44.80 1.53L44.80 1.53L44.80 1.53Q44.70 1.76 44.53 1.93L44.53 1.93L44.53 1.93Q44.37 2.10 44.14 2.20L44.14 2.20L44.14 2.20Q43.92 2.30 43.67 2.30L43.67 2.30L43.67 2.30Q43.13 2.30 42.77 1.93L42.77 1.93L42.77 1.93Q42.41 1.57 42.41 1.04L42.41 1.04L42.41 1.04Q42.41 0.78 42.50 0.56L42.50 0.56L42.50 0.56Q42.60 0.34 42.77 0.17L42.77 0.17L42.77 0.17Q42.94 0.01 43.17-0.08L43.17-0.08L43.17-0.08Q43.40-0.18 43.67-0.18L43.67-0.18L43.67-0.18Q44.17-0.18 44.53 0.17L44.53 0.17L44.53 0.17Q44.90 0.53 44.90 1.04ZM49.73 3.04L49.73 3.04L49.73 3.04Q50.26 3.04 50.69 3.22L50.69 3.22L50.69 3.22Q51.13 3.40 51.44 3.63L51.44 3.63L51.44 3.63Q51.80 3.88 52.05 4.21L52.05 4.21L52.05 1.55L54.57 1.55L54.57 10.50L52.47 10.50L52.11 9.53L52.11 9.53Q51.86 9.84 51.51 10.09L51.51 10.09L51.51 10.09Q51.21 10.30 50.76 10.48L50.76 10.48L50.76 10.48Q50.32 10.65 49.73 10.65L49.73 10.65L49.73 10.65Q48.90 10.65 48.28 10.35L48.28 10.35L48.28 10.35Q47.66 10.05 47.24 9.55L47.24 9.55L47.24 9.55Q46.82 9.04 46.60 8.37L46.60 8.37L46.60 8.37Q46.38 7.69 46.38 6.93L46.38 6.93L46.38 6.93Q46.38 6.17 46.60 5.47L46.60 5.47L46.60 5.47Q46.82 4.77 47.24 4.23L47.24 4.23L47.24 4.23Q47.66 3.68 48.28 3.36L48.28 3.36L48.28 3.36Q48.90 3.04 49.73 3.04ZM50.53 8.75L50.53 8.75L50.53 8.75Q50.78 8.75 51.05 8.67L51.05 8.67L51.05 8.67Q51.32 8.60 51.55 8.39L51.55 8.39L51.55 8.39Q51.77 8.19 51.91 7.83L51.91 7.83L51.91 7.83Q52.05 7.46 52.05 6.89L52.05 6.89L52.05 6.89Q52.05 6.31 51.91 5.94L51.91 5.94L51.91 5.94Q51.77 5.57 51.55 5.35L51.55 5.35L51.55 5.35Q51.32 5.14 51.05 5.05L51.05 5.05L51.05 5.05Q50.78 4.97 50.53 4.97L50.53 4.97L50.53 4.97Q50.27 4.97 50.01 5.05L50.01 5.05L50.01 5.05Q49.74 5.14 49.52 5.35L49.52 5.35L49.52 5.35Q49.31 5.57 49.17 5.94L49.17 5.94L49.17 5.94Q49.03 6.31 49.03 6.89L49.03 6.89L49.03 6.89Q49.03 7.46 49.17 7.83L49.17 7.83L49.17 7.83Q49.31 8.19 49.52 8.39L49.52 8.39L49.52 8.39Q49.74 8.60 50.01 8.67L50.01 8.67L50.01 8.67Q50.27 8.75 50.53 8.75ZM60.19 10.65L60.19 10.65L60.19 10.65Q58.86 10.65 57.99 10.31L57.99 10.31L57.99 10.31Q57.12 9.97 56.61 9.43L56.61 9.43L56.61 9.43Q56.10 8.89 55.89 8.21L55.89 8.21L55.89 8.21Q55.69 7.53 55.69 6.86L55.69 6.86L55.69 6.86Q55.69 6.19 55.89 5.51L55.89 5.51L55.89 5.51Q56.10 4.83 56.55 4.28L56.55 4.28L56.55 4.28Q57.01 3.72 57.74 3.38L57.74 3.38L57.74 3.38Q58.48 3.04 59.53 3.04L59.53 3.04L59.53 3.04Q60.61 3.04 61.33 3.38L61.33 3.38L61.33 3.38Q62.06 3.72 62.50 4.28L62.50 4.28L62.50 4.28Q62.93 4.83 63.11 5.51L63.11 5.51L63.11 5.51Q63.29 6.19 63.29 6.86L63.29 6.86L63.29 7.56L58.25 7.56L58.25 7.56Q58.27 7.73 58.39 7.97L58.39 7.97L58.39 7.97Q58.51 8.22 58.76 8.44L58.76 8.44L58.76 8.44Q59.01 8.65 59.41 8.81L59.41 8.81L59.41 8.81Q59.81 8.96 60.38 8.96L60.38 8.96L60.38 8.96Q60.91 8.96 61.35 8.87L61.35 8.87L61.35 8.87Q61.80 8.78 62.10 8.67L62.10 8.67L62.10 8.67Q62.47 8.53 62.73 8.36L62.73 8.36L62.73 10.07L62.73 10.07Q62.73 10.08 62.52 10.17L62.52 10.17L62.52 10.17Q62.30 10.26 61.94 10.37L61.94 10.37L61.94 10.37Q61.59 10.47 61.12 10.56L61.12 10.56L61.12 10.56Q60.66 10.65 60.19 10.65ZM58.25 6.13L61.03 6.13L61.03 6.13Q61.03 5.89 60.96 5.63L60.96 5.63L60.96 5.63Q60.89 5.36 60.72 5.14L60.72 5.14L60.72 5.14Q60.55 4.91 60.28 4.77L60.28 4.77L60.28 4.77Q60.02 4.62 59.63 4.62L59.63 4.62L59.63 4.62Q59.23 4.62 58.97 4.77L58.97 4.77L58.97 4.77Q58.70 4.91 58.55 5.14L58.55 5.14L58.55 5.14Q58.39 5.36 58.32 5.63L58.32 5.63L58.32 5.63Q58.25 5.89 58.25 6.13L58.25 6.13ZM75.14 2.25L74.38 4.16L74.38 4.16Q73.79 3.75 73.19 3.50L73.19 3.50L73.19 3.50Q72.59 3.25 72.10 3.25L72.10 3.25L72.10 3.25Q71.65 3.25 71.44 3.35L71.44 3.35L71.44 3.35Q71.23 3.46 71.23 3.82L71.23 3.82L71.23 3.82Q71.23 4.23 71.60 4.44L71.60 4.44L71.60 4.44Q71.96 4.65 72.55 4.84L72.55 4.84L72.55 4.84Q73.04 5.01 73.54 5.21L73.54 5.21L73.54 5.21Q74.05 5.42 74.45 5.75L74.45 5.75L74.45 5.75Q74.86 6.08 75.11 6.58L75.11 6.58L75.11 6.58Q75.36 7.08 75.36 7.84L75.36 7.84L75.36 7.84Q75.36 8.57 75.08 9.10L75.08 9.10L75.08 9.10Q74.80 9.63 74.34 9.97L74.34 9.97L74.34 9.97Q73.88 10.32 73.28 10.49L73.28 10.49L73.28 10.49Q72.69 10.65 72.04 10.65L72.04 10.65L72.04 10.65Q71.13 10.65 70.22 10.27L70.22 10.27L70.22 10.27Q69.31 9.88 68.61 9.13L68.61 9.13L69.43 7.24L69.43 7.24Q70.07 7.90 70.73 8.26L70.73 8.26L70.73 8.26Q71.40 8.62 72.00 8.62L72.00 8.62L72.00 8.62Q72.51 8.62 72.83 8.50L72.83 8.50L72.83 8.50Q73.15 8.37 73.16 7.97L73.16 7.97L73.16 7.97Q73.16 7.73 73.06 7.57L73.06 7.57L73.06 7.57Q72.95 7.41 72.77 7.30L72.77 7.30L72.77 7.30Q72.58 7.20 72.31 7.11L72.31 7.11L72.31 7.11Q72.04 7.03 71.75 6.93L71.75 6.93L71.75 6.93Q71.26 6.76 70.78 6.55L70.78 6.55L70.78 6.55Q70.29 6.34 69.90 6.00L69.90 6.00L69.90 6.00Q69.51 5.66 69.27 5.16L69.27 5.16L69.27 5.16Q69.03 4.66 69.03 3.93L69.03 3.93L69.03 3.93Q69.03 3.21 69.30 2.69L69.30 2.69L69.30 2.69Q69.57 2.17 70 1.84L70 1.84L70 1.84Q70.43 1.51 71.00 1.36L71.00 1.36L71.00 1.36Q71.57 1.20 72.17 1.20L72.17 1.20L72.17 1.20Q72.94 1.20 73.71 1.48L73.71 1.48L73.71 1.48Q74.48 1.76 75.14 2.25L75.14 2.25ZM81.27 3.04L81.27 3.04L81.27 3.04Q81.83 3.04 82.38 3.15L82.38 3.15L82.38 3.15Q82.94 3.26 83.38 3.61L83.38 3.61L83.38 3.61Q83.82 3.96 84.10 4.61L84.10 4.61L84.10 4.61Q84.38 5.26 84.38 6.33L84.38 6.33L84.38 10.50L82.04 10.50L82.04 7.17L82.04 7.17Q82.04 6.13 81.70 5.59L81.70 5.59L81.70 5.59Q81.37 5.05 80.74 5.05L80.74 5.05L80.74 5.05Q80.29 5.05 79.98 5.25L79.98 5.25L79.98 5.25Q79.67 5.45 79.48 5.80L79.48 5.80L79.48 5.80Q79.30 6.15 79.21 6.62L79.21 6.62L79.21 6.62Q79.13 7.08 79.13 7.64L79.13 7.64L79.13 10.50L76.62 10.50L76.62 1.55L78.92 1.55L78.92 4.56L78.92 4.56Q78.92 4.56 79.04 4.33L79.04 4.33L79.04 4.33Q79.17 4.09 79.45 3.80L79.45 3.80L79.45 3.80Q79.73 3.51 80.18 3.28L80.18 3.28L80.18 3.28Q80.63 3.04 81.27 3.04ZM92.89 5.77L92.89 10.50L90.89 10.50L90.64 9.39L90.64 9.39Q90.19 10.05 89.64 10.35L89.64 10.35L89.64 10.35Q89.10 10.65 88.33 10.65L88.33 10.65L88.33 10.65Q87.78 10.65 87.28 10.52L87.28 10.52L87.28 10.52Q86.79 10.39 86.41 10.13L86.41 10.13L86.41 10.13Q86.03 9.87 85.81 9.48L85.81 9.48L85.81 9.48Q85.58 9.09 85.58 8.57L85.58 8.57L85.58 8.57Q85.57 7.87 85.78 7.39L85.78 7.39L85.78 7.39Q86.00 6.92 86.39 6.61L86.39 6.61L86.39 6.61Q86.77 6.30 87.28 6.13L87.28 6.13L87.28 6.13Q87.78 5.96 88.33 5.90L88.33 5.90L88.33 5.90Q88.89 5.84 89.45 5.84L89.45 5.84L89.45 5.84Q90.02 5.85 90.52 5.88L90.52 5.88L90.52 5.84L90.52 5.84Q90.52 5.29 90.24 5.03L90.24 5.03L90.24 5.03Q89.95 4.77 89.52 4.70L89.52 4.70L89.52 4.70Q89.10 4.63 88.58 4.71L88.58 4.71L88.58 4.71Q88.07 4.79 87.63 4.91L87.63 4.91L87.63 4.91Q87.18 5.04 86.86 5.17L86.86 5.17L86.86 5.17Q86.53 5.29 86.49 5.32L86.49 5.32L86.49 3.58L86.49 3.58Q86.51 3.57 86.77 3.49L86.77 3.49L86.77 3.49Q87.02 3.40 87.42 3.30L87.42 3.30L87.42 3.30Q87.81 3.21 88.28 3.12L88.28 3.12L88.28 3.12Q88.76 3.04 89.22 3.04L89.22 3.04L89.22 3.04Q89.68 3.04 90.31 3.15L90.31 3.15L90.31 3.15Q90.94 3.26 91.52 3.56L91.52 3.56L91.52 3.56Q92.09 3.86 92.49 4.40L92.49 4.40L92.49 4.40Q92.89 4.93 92.89 5.77L92.89 5.77ZM90.51 7.52L90.51 7.25L90.51 7.25Q90.05 7.25 89.59 7.26L89.59 7.26L89.59 7.26Q89.14 7.27 88.77 7.34L88.77 7.34L88.77 7.34Q88.40 7.42 88.17 7.61L88.17 7.61L88.17 7.61Q87.95 7.80 87.95 8.16L87.95 8.16L87.95 8.16Q87.95 8.55 88.19 8.77L88.19 8.77L88.19 8.77Q88.42 8.99 88.72 8.99L88.72 8.99L88.72 8.99Q89.11 8.99 89.44 8.88L89.44 8.88L89.44 8.88Q89.77 8.76 90.01 8.56L90.01 8.56L90.01 8.56Q90.24 8.36 90.38 8.09L90.38 8.09L90.38 8.09Q90.51 7.83 90.51 7.52L90.51 7.52ZM99.58 3.04L99.46 5.22L99.46 5.22Q98.64 5.04 98.14 5.24L98.14 5.24L98.14 5.24Q97.64 5.43 97.35 5.81L97.35 5.81L97.35 5.81Q97.06 6.19 96.96 6.64L96.96 6.64L96.96 6.64Q96.85 7.10 96.85 7.41L96.85 7.41L96.85 10.50L94.36 10.50L94.36 3.22L96.28 3.22L96.66 4.55L96.66 4.55Q96.66 4.55 96.78 4.31L96.78 4.31L96.78 4.31Q96.91 4.07 97.24 3.79L97.24 3.79L97.24 3.79Q97.58 3.51 98.15 3.28L98.15 3.28L98.15 3.28Q98.71 3.04 99.58 3.04L99.58 3.04ZM103.22 10.50L100.70 10.50L100.70 3.22L103.22 3.22L103.22 10.50ZM103.21 1.04L103.21 1.04L103.21 1.04Q103.21 1.30 103.11 1.53L103.11 1.53L103.11 1.53Q103.01 1.76 102.84 1.93L102.84 1.93L102.84 1.93Q102.68 2.10 102.45 2.20L102.45 2.20L102.45 2.20Q102.23 2.30 101.98 2.30L101.98 2.30L101.98 2.30Q101.44 2.30 101.08 1.93L101.08 1.93L101.08 1.93Q100.72 1.57 100.72 1.04L100.72 1.04L100.72 1.04Q100.72 0.78 100.81 0.56L100.81 0.56L100.81 0.56Q100.91 0.34 101.08 0.17L101.08 0.17L101.08 0.17Q101.25 0.01 101.48-0.08L101.48-0.08L101.48-0.08Q101.71-0.18 101.98-0.18L101.98-0.18L101.98-0.18Q102.48-0.18 102.84 0.17L102.84 0.17L102.84 0.17Q103.21 0.53 103.21 1.04ZM109.70 3.04L109.70 3.04L109.70 3.04Q110.26 3.04 110.82 3.15L110.82 3.15L110.82 3.15Q111.37 3.26 111.81 3.61L111.81 3.61L111.81 3.61Q112.25 3.96 112.53 4.61L112.53 4.61L112.53 4.61Q112.81 5.26 112.81 6.33L112.81 6.33L112.81 10.50L110.47 10.50L110.47 7.17L110.47 7.17Q110.47 6.13 110.14 5.59L110.14 5.59L110.14 5.59Q109.80 5.05 109.17 5.05L109.17 5.05L109.17 5.05Q108.72 5.05 108.42 5.25L108.42 5.25L108.42 5.25Q108.11 5.45 107.92 5.80L107.92 5.80L107.92 5.80Q107.73 6.15 107.65 6.62L107.65 6.62L107.65 6.62Q107.56 7.08 107.56 7.64L107.56 7.64L107.56 10.50L105.04 10.50L105.04 3.22L106.93 3.22L107.35 4.56L107.35 4.56Q107.35 4.56 107.48 4.33L107.48 4.33L107.48 4.33Q107.60 4.09 107.88 3.80L107.88 3.80L107.88 3.80Q108.16 3.51 108.61 3.28L108.61 3.28L108.61 3.28Q109.06 3.04 109.70 3.04ZM119.97 3.25L122.08 3.25L122.08 9.86L122.08 9.86Q122.08 10.54 121.87 11.16L121.87 11.16L121.87 11.16Q121.66 11.79 121.14 12.26L121.14 12.26L121.14 12.26Q120.62 12.73 119.76 13.01L119.76 13.01L119.76 13.01Q118.90 13.29 117.59 13.29L117.59 13.29L117.59 13.29Q117.04 13.29 116.55 13.21L116.55 13.21L116.55 13.21Q116.06 13.13 115.70 13.03L115.70 13.03L115.70 13.03Q115.26 12.92 114.88 12.77L114.88 12.77L115.02 10.91L115.02 10.91Q115.40 11.06 115.82 11.17L115.82 11.17L115.82 11.17Q116.19 11.28 116.64 11.36L116.64 11.36L116.64 11.36Q117.10 11.44 117.59 11.44L117.59 11.44L117.59 11.44Q118.40 11.44 118.84 11.16L118.84 11.16L118.84 11.16Q119.28 10.89 119.48 10.52L119.48 10.52L119.48 10.52Q119.69 10.15 119.71 9.79L119.71 9.79L119.71 9.79Q119.74 9.42 119.74 9.25L119.74 9.25L119.74 9.25Q119.74 9.25 119.59 9.44L119.59 9.44L119.59 9.44Q119.43 9.63 119.15 9.87L119.15 9.87L119.15 9.87Q118.86 10.11 118.43 10.30L118.43 10.30L118.43 10.30Q117.99 10.50 117.43 10.50L117.43 10.50L117.43 10.50Q116.80 10.50 116.19 10.31L116.19 10.31L116.19 10.31Q115.58 10.12 115.09 9.68L115.09 9.68L115.09 9.68Q114.60 9.24 114.30 8.53L114.30 8.53L114.30 8.53Q114.00 7.81 114.00 6.78L114.00 6.78L114.00 6.78Q114.00 5.74 114.28 5.03L114.28 5.03L114.28 5.03Q114.55 4.31 115.02 3.87L115.02 3.87L115.02 3.87Q115.49 3.43 116.11 3.23L116.11 3.23L116.11 3.23Q116.73 3.04 117.43 3.04L117.43 3.04L117.43 3.04Q118.16 3.04 118.62 3.27L118.62 3.27L118.62 3.27Q119.08 3.50 119.34 3.78L119.34 3.78L119.34 3.78Q119.60 4.06 119.70 4.29L119.70 4.29L119.70 4.29Q119.80 4.52 119.80 4.52L119.80 4.52L119.97 3.25ZM119.64 6.76L119.64 6.76L119.64 6.76Q119.64 6.27 119.52 5.92L119.52 5.92L119.52 5.92Q119.39 5.57 119.18 5.35L119.18 5.35L119.18 5.35Q118.97 5.14 118.69 5.04L118.69 5.04L118.69 5.04Q118.41 4.94 118.12 4.94L118.12 4.94L118.12 4.94Q117.82 4.94 117.55 5.04L117.55 5.04L117.55 5.04Q117.28 5.14 117.07 5.36L117.07 5.36L117.07 5.36Q116.86 5.59 116.73 5.93L116.73 5.93L116.73 5.93Q116.61 6.27 116.61 6.76L116.61 6.76L116.61 6.76Q116.61 7.25 116.73 7.59L116.73 7.59L116.73 7.59Q116.86 7.94 117.07 8.15L117.07 8.15L117.07 8.15Q117.28 8.37 117.55 8.47L117.55 8.47L117.55 8.47Q117.82 8.57 118.12 8.57L118.12 8.57L118.12 8.57Q118.41 8.57 118.69 8.47L118.69 8.47L118.69 8.47Q118.97 8.37 119.18 8.15L119.18 8.15L119.18 8.15Q119.39 7.94 119.52 7.59L119.52 7.59L119.52 7.59Q119.64 7.25 119.64 6.76Z"></path></g><defs data-v-423bf9ae=""><linearGradient data-v-423bf9ae="" gradientTransform="rotate(25)" id="956fc3d7-9011-4620-aced-8c51d4e5e4fe" x1="0%" y1="0%" x2="100%" y2="0%"><stop data-v-423bf9ae="" offset="0%" style="stop-color: rgb(79, 126, 72); stop-opacity: 1;"></stop><stop data-v-423bf9ae="" offset="100%" style="stop-color: rgb(202, 230, 165); stop-opacity: 1;"></stop></linearGradient></defs><g data-v-423bf9ae="" id="a7927172-66b2-4b51-b7f0-fe2a556a3307" transform="matrix(2.8125,0,0,2.8125,0,0)" stroke="none" fill="url(#956fc3d7-9011-4620-aced-8c51d4e5e4fe)"><path d="M4.029 14.362L14.362 4.028l.707.707L4.736 15.07zM17.135 27.47L27.47 17.135l.707.707-10.333 10.333zM4.029 17.841l.707-.707 10.333 10.334-.707.707zM17.135 4.735l.708-.707L28.176 14.36l-.707.707z"></path><g><path d="M16 1.414l1.683 1.683L16 4.779l-1.683-1.683L16 1.414M16 0l-3.097 3.097L16 6.194l3.097-3.097L16 0zM16 27.221l1.683 1.683L16 30.586l-1.683-1.683L16 27.221m0-1.415l-3.097 3.097L16 32l3.097-3.097L16 25.806zM3.097 14.317L4.779 16l-1.683 1.683L1.414 16l1.683-1.683m0-1.414L0 16l3.097 3.097L6.194 16l-3.097-3.097zM28.903 14.317L30.586 16l-1.683 1.683L27.221 16l1.682-1.683m0-1.414L25.806 16l3.097 3.097L32 16l-3.097-3.097z"></path></g></g><!----></svg>